<svg width="173" height="32" viewBox="0 0 173 32" fill="none" xmlns="http://www.w3.org/2000/svg">
<path d="M29.674 18.5441C29.674 19.3728 29.0294 20.0446 28.2343 20.0446C27.4391 20.0446 26.7947 19.3728 26.7947 18.5441C26.7947 17.7154 27.4391 17.0436 28.2343 17.0436C29.0294 17.0436 29.674 17.7154 29.674 18.5441Z" fill="#075D24"/>
<path d="M28.2346 14.6194C26.1582 14.6194 24.4692 16.3799 24.4692 18.5437C24.4692 18.5735 24.4726 18.6019 24.4734 18.6311C21.4897 20.1787 19.8778 23.4355 18.6131 25.9974C17.8465 27.5501 17.123 29.0167 16.3326 29.6332C15.314 30.4278 14.1932 30.6023 13.2574 30.1142C11.8873 29.3995 11.0696 27.375 11.0696 24.6992V21.7505C11.6343 21.6016 12.1495 21.293 12.5634 20.8393C15.1326 18.0241 17.1538 15.4354 18.5709 13.1435C18.7832 12.8002 18.7728 12.3771 18.5843 12.0486C20.4777 8.76089 21.0338 6.1285 20.2327 4.18206C19.5027 2.40885 17.7063 1.34468 14.8804 1.00449C14.6802 0.427549 13.9957 0 13.1732 0C12.1948 0 11.4014 0.602785 11.4014 1.34673C11.4014 2.09037 12.1945 2.69346 13.1732 2.69346C13.8779 2.69346 14.4818 2.37811 14.7668 1.92573C16.7683 2.17103 18.7259 2.86431 19.4187 4.54673C20.0886 6.1739 19.5221 8.56588 17.8122 11.5504C17.4586 11.5211 17.1007 11.6855 16.8946 12.0185C15.5451 14.2011 13.6014 16.6872 11.1181 19.4085C10.9006 19.6471 10.6075 19.7784 10.2935 19.7784C9.97949 19.7784 9.68657 19.6469 9.46883 19.4078C6.98592 16.6872 5.04239 14.2008 3.6924 12.0184C3.48629 11.6857 3.12889 11.521 2.77473 11.5502C1.0651 8.56576 0.499125 6.17404 1.16854 4.54728C1.86125 2.86453 3.81887 2.17157 5.82044 1.92628C6.10591 2.37914 6.70935 2.694 7.41399 2.694C8.39243 2.694 9.18584 2.09122 9.18584 1.34727C9.18584 0.603633 8.39268 0.000542462 7.41399 0.000542462C6.59207 0.000542462 5.90704 0.428072 5.70736 1.00503C2.8819 1.34442 1.08498 2.40913 0.355059 4.18207C-0.446036 6.12792 0.110508 8.76083 2.00392 12.0486C1.81542 12.3769 1.8055 12.8 2.01781 13.1435C3.43549 15.435 5.45635 18.0242 8.02536 20.8393C8.43955 21.2937 8.95471 21.6023 9.51917 21.7512V24.6998C9.51917 28.05 10.6288 30.5506 12.5631 31.5598C13.1281 31.8547 13.738 32 14.359 32C15.3414 32 16.3526 31.6368 17.2614 30.9281C18.338 30.0883 19.1041 28.5361 19.9923 26.7381C21.2019 24.2869 22.5276 21.6038 24.8468 20.2458C25.4567 21.5586 26.7437 22.4685 28.2345 22.4685C30.3109 22.4685 32 20.7087 32 18.5447C32 16.3799 30.3111 14.6194 28.2346 14.6194ZM28.2346 21.3134C26.7691 21.3134 25.5769 20.0709 25.5769 18.5435C25.5769 17.0161 26.7691 15.7736 28.2346 15.7736C29.7002 15.7736 30.8924 17.0161 30.8924 18.5435C30.8924 20.0709 29.7002 21.3134 28.2346 21.3134Z" fill="#075D24"/>
<path d="M56.4422 8.35491V24.7273H53.8275V17.6896H44.9815V24.7273H42.3668V8.35491H44.9815V15.2948H53.8275V8.35491H56.4422Z" fill="#075D24"/>
<path d="M71.8463 18.3983V19.278H62.0228C62.1369 20.3695 62.5441 21.241 63.2447 21.8927C63.9452 22.5443 64.7597 22.8701 65.6883 22.8701C67.3663 22.8701 68.5555 22.1696 69.256 20.7686L71.5286 21.2573C71.0399 22.5117 70.2823 23.4647 69.256 24.1164C68.246 24.7517 67.0567 25.0694 65.6883 25.0694C63.994 25.0694 62.536 24.4748 61.3142 23.2855C60.1087 22.0963 59.5059 20.5649 59.5059 18.6915C59.5059 16.8017 60.1087 15.2623 61.3142 14.073C62.536 12.8675 64.0266 12.2647 65.786 12.2647C67.4314 12.2647 68.8324 12.8431 69.9891 13.9997C71.162 15.1401 71.7811 16.6063 71.8463 18.3983ZM65.786 14.5129C64.9389 14.5129 64.1569 14.7735 63.4401 15.2948C62.7233 15.8161 62.2753 16.5411 62.0961 17.4697H69.2316C69.0361 16.5085 68.6288 15.7754 68.0097 15.2704C67.3907 14.7654 66.6495 14.5129 65.786 14.5129Z" fill="#075D24"/>
<path d="M86.7561 12.6068V24.7273H84.2147V23.3344C83.1069 24.4911 81.6407 25.0694 79.8161 25.0694C78.1708 25.0694 76.7534 24.4748 75.5642 23.2855C74.3913 22.08 73.8048 20.5405 73.8048 18.6671C73.8048 16.8099 74.3994 15.2785 75.5886 14.073C76.7779 12.8675 78.187 12.2647 79.8161 12.2647C81.6407 12.2647 83.1069 12.8431 84.2147 13.9997V12.6068H86.7561ZM80.2316 22.8212C81.2905 22.8212 82.219 22.4384 83.0173 21.6727C83.8156 20.8908 84.2147 19.8889 84.2147 18.6671C84.2147 17.4452 83.8156 16.4515 83.0173 15.6858C82.219 14.9039 81.2905 14.5129 80.2316 14.5129C79.0912 14.5129 78.1463 14.8957 77.3969 15.6614C76.6476 16.4108 76.2729 17.4127 76.2729 18.6671C76.2729 19.9215 76.6476 20.9315 77.3969 21.6972C78.1463 22.4465 79.0912 22.8212 80.2316 22.8212Z" fill="#075D24"/>
<path d="M93.3924 24.7273H90.8511V7.13309H93.3924V24.7273Z" fill="#075D24"/>
<path d="M104.773 22.0148L105.555 24.1408C104.512 24.7599 103.51 25.0694 102.549 25.0694C101.197 25.0694 100.13 24.6947 99.348 23.9453C98.5661 23.1796 98.1751 22.0637 98.1751 20.5975V14.7084H95.5604V12.6068H98.1751V8.84363H100.716V12.6068H104.871V14.7084H100.716V20.4265C100.716 21.1596 100.896 21.7216 101.254 22.1126C101.612 22.4873 102.101 22.6746 102.72 22.6746C103.421 22.6746 104.105 22.4547 104.773 22.0148Z" fill="#075D24"/>
<path d="M114.598 12.2647C116.048 12.2647 117.221 12.7453 118.117 13.7065C119.013 14.6513 119.461 15.8813 119.461 17.3964V24.7273H116.895V17.9095C116.895 16.9158 116.626 16.1175 116.088 15.5148C115.567 14.912 114.875 14.6106 114.011 14.6106C112.887 14.6106 111.999 14.9935 111.348 15.7591C110.712 16.5248 110.395 17.6489 110.395 19.1313V24.7273H107.853V7.13309H110.395V14.0975C111.421 12.8756 112.822 12.2647 114.598 12.2647Z" fill="#075D24"/>
<path d="M124.741 7.37745C125.197 7.37745 125.58 7.53222 125.89 7.84174C126.199 8.15127 126.354 8.52596 126.354 8.96582C126.354 9.42196 126.199 9.79665 125.89 10.0899C125.597 10.3831 125.214 10.5297 124.741 10.5297C124.269 10.5297 123.878 10.3831 123.568 10.0899C123.259 9.79665 123.104 9.42196 123.104 8.96582C123.104 8.52596 123.259 8.15127 123.568 7.84174C123.878 7.53222 124.269 7.37745 124.741 7.37745ZM126.012 24.7273H123.471V12.6068H126.012V24.7273Z" fill="#075D24"/>
<path d="M141.708 12.6068V24.7273H139.167V14.7084H133.376V24.7273H130.834V14.7084H128.855V12.6068H130.834V11.1651C130.834 9.81294 131.242 8.74589 132.056 7.96393C132.887 7.16567 133.987 6.76654 135.355 6.76654C136.17 6.76654 136.903 6.9376 137.554 7.27971L136.968 9.33236C136.479 9.13687 135.999 9.03913 135.526 9.03913C134.858 9.03913 134.329 9.22647 133.938 9.60116C133.563 9.97585 133.376 10.4972 133.376 11.1651V12.6068H141.708ZM141.586 10.0899C141.293 10.3831 140.91 10.5297 140.438 10.5297C139.965 10.5297 139.574 10.3831 139.265 10.0899C138.955 9.79665 138.801 9.42196 138.801 8.96582C138.801 8.52596 138.955 8.15127 139.265 7.84174C139.574 7.53222 139.965 7.37745 140.438 7.37745C140.894 7.37745 141.277 7.53222 141.586 7.84174C141.896 8.15127 142.051 8.52596 142.051 8.96582C142.051 9.42196 141.896 9.79665 141.586 10.0899Z" fill="#075D24"/>
<path d="M157.27 18.3983V19.278H147.447C147.561 20.3695 147.968 21.241 148.669 21.8927C149.369 22.5443 150.184 22.8701 151.112 22.8701C152.79 22.8701 153.98 22.1696 154.68 20.7686L156.953 21.2573C156.464 22.5117 155.706 23.4647 154.68 24.1164C153.67 24.7517 152.481 25.0694 151.112 25.0694C149.418 25.0694 147.96 24.4748 146.738 23.2855C145.533 22.0963 144.93 20.5649 144.93 18.6915C144.93 16.8017 145.533 15.2623 146.738 14.073C147.96 12.8675 149.451 12.2647 151.21 12.2647C152.856 12.2647 154.257 12.8431 155.413 13.9997C156.586 15.1401 157.205 16.6063 157.27 18.3983ZM151.21 14.5129C150.363 14.5129 149.581 14.7735 148.864 15.2948C148.148 15.8161 147.7 16.5411 147.52 17.4697H154.656C154.46 16.5085 154.053 15.7754 153.434 15.2704C152.815 14.7654 152.074 14.5129 151.21 14.5129Z" fill="#075D24"/>
<path d="M172.254 7.13309V24.7273H169.688V23.3588C168.547 24.4992 167.081 25.0694 165.289 25.0694C163.66 25.0694 162.251 24.4666 161.062 23.2611C159.872 22.0556 159.278 20.5242 159.278 18.6671C159.278 16.8099 159.872 15.2785 161.062 14.073C162.251 12.8675 163.66 12.2647 165.289 12.2647C167.097 12.2647 168.564 12.8431 169.688 13.9997V7.13309H172.254ZM165.705 22.8212C166.764 22.8212 167.692 22.4384 168.49 21.6727C169.289 20.9071 169.688 19.9052 169.688 18.6671C169.688 17.4452 169.289 16.4515 168.49 15.6858C167.692 14.9039 166.764 14.5129 165.705 14.5129C164.581 14.5129 163.644 14.8957 162.894 15.6614C162.145 16.4271 161.77 17.4289 161.77 18.6671C161.77 19.9215 162.145 20.9315 162.894 21.6972C163.644 22.4465 164.581 22.8212 165.705 22.8212Z" fill="#075D24"/>
</svg>
